<?xml version="1.0" standalone="no"?><!DOCTYPE svg PUBLIC "-//W3C//DTD SVG 1.1//EN" "http://www.w3.org/Graphics/SVG/1.1/DTD/svg11.dtd"><svg class="icon" width="200px" height="200.00px" viewBox="0 0 1024 1024" version="1.1" xmlns="http://www.w3.org/2000/svg"><path fill="#000000" d="M653.2 149.1L290.5 515.2l-27.4 27.4c-3.4 3.5-6.8 10.3-6.8 17.2l-17.2 123.1c0 6.8 3.5 17.2 6.8 24 6.8 6.8 13.7 6.8 20.5 6.8h3.4L393 696.6c6.8 0 10.3-3.5 17.2-6.8l27.4-27.4 362.7-366 51.4-51.4c20.5-20.5 30.8-47.9 30.8-75.3s-10.3-54.7-30.8-71.9C831 77.3 807 67 776.3 67c-27.4 0-54.7 10.3-75.2 30.8l-47.9 51.3zM417.1 604.2l-68.4-68.4 325-328.5 68.4 68.4-325 328.5z m-119.8 47.9l10.3-78.7 68.4 68.4-78.7 10.3z m479-530.4c13.7 0 24 3.4 34.2 13.7 10.2 10.3 13.7 20.5 13.7 34.2 0 13.7-3.5 24-13.7 34.2l-30.8 30.8-68.4-68.4 30.8-30.8c10.3-6.8 24-13.7 34.2-13.7zM261 763.4h507.7c18 0 32.6 14.6 32.6 32.6s-14.6 32.6-32.6 32.6H261c-18 0-32.6-14.6-32.6-32.6s14.6-32.6 32.6-32.6zM625.2 642h137.3c18 0 32.6 14.6 32.6 32.6s-14.6 32.6-32.6 32.6H625.2c-18 0-32.6-14.6-32.6-32.6s14.6-32.6 32.6-32.6z"  /><path fill="#000000" d="M762.7 959.5H261.3c-103.6 0-187.9-84.3-187.9-187.9V270.2c0-103.6 84.3-187.9 187.9-187.9h278.9c18.5 0 33.6 15 33.6 33.6s-15 33.6-33.6 33.6H261.3c-66.6 0-120.7 54.1-120.7 120.7v501.4c0 66.6 54.1 120.7 120.7 120.7h501.4c66.6 0 120.7-54.1 120.7-120.7V495.9c0-18.5 15-33.6 33.6-33.6s33.6 15 33.6 33.6v275.7c0 103.6-84.3 187.9-187.9 187.9z"  /></svg>