<?xml version="1.0" standalone="no"?><!DOCTYPE svg PUBLIC "-//W3C//DTD SVG 1.1//EN" "http://www.w3.org/Graphics/SVG/1.1/DTD/svg11.dtd"><svg class="icon" width="200px" height="141.24px" viewBox="0 0 1450 1024" version="1.1" xmlns="http://www.w3.org/2000/svg"><path fill="#000000" d="M408.062348 118.643512c25.599147-28.841705 25.599147-73.640212-8.533049-100.007333-25.599147-26.452452-68.264391-24.48985-102.396587 4.351855l-136.528782 152.741575-34.132196-44.030532c-25.599147-30.036332-68.264391-34.132196-102.396587-9.045032-25.599147 25.001833-34.132196 69.715009-8.533048 99.836672l85.330488 106.151128c17.066098 15.70081 34.132196 25.001833 59.731343 25.428486 17.066098 0.511983 34.132196-7.850405 51.198293-22.953902l196.260125-212.472917z m230.39232 23.039232c-42.665244 0-76.79744 31.657611-76.79744 70.824306 0 39.081364 34.132196 70.824306 76.79744 70.824306h708.243059c34.132196 0 68.264391-31.742942 68.264391-70.824306 0-39.166694-34.132196-70.824306-68.264391-70.824306h-708.243059z m-238.925369 514.372188c34.132196 26.452452 34.132196 71.250958 8.533049 100.092663l-196.260125 212.472918c-17.066098 15.018166-34.132196 23.380554-51.198293 23.039232-25.599147-0.597313-42.665244-9.898337-59.731343-25.599147l-85.330488-106.236459c-25.599147-30.036332-17.066098-74.664178 8.533048-99.751341 34.132196-25.001833 76.79744-20.9913 102.396587 9.045031l34.132196 44.030533 136.528782-152.741576c34.132196-28.841705 76.79744-30.718976 102.396587-4.266524z m238.925369 123.046565c-42.665244 0-76.79744 31.657611-76.79744 70.824305 0 39.081364 34.132196 70.824306 76.79744 70.824306h708.243059c34.132196 0 68.264391-31.742942 68.264391-70.824306 0-39.166694-34.132196-70.824306-68.264391-70.824305h-708.243059z" /></svg>