<?xml version="1.0" standalone="no"?><!DOCTYPE svg PUBLIC "-//W3C//DTD SVG 1.1//EN" "http://www.w3.org/Graphics/SVG/1.1/DTD/svg11.dtd"><svg class="icon" width="200px" height="200.00px" viewBox="0 0 1024 1024" version="1.1" xmlns="http://www.w3.org/2000/svg"><path fill="#000000" d="M896 768h-64v-64h64a32 32 0 0 0 32-32V128a32 32 0 0 0-32-32H128a32 32 0 0 0-32 32v544a32 32 0 0 0 32 32h64v64H128a96 96 0 0 1-96-96V128a96 96 0 0 1 96-96h768a96 96 0 0 1 96 96v544a96 96 0 0 1-96 96zM295.872 845.568a96 96 0 1 1 112.256 0A139.232 139.232 0 0 1 480 957.152c0 43.968-57.312 34.144-128 34.144s-128 9.856-128-34.144a139.232 139.232 0 0 1 71.872-111.584zM736 576H288v-64h448v64zM288 192h448v64H288V192z m448 224H288v-64h448v64z m-120.128 429.568a96 96 0 1 1 112.256 0A139.232 139.232 0 0 1 800 957.152c0 43.968-57.312 34.144-128 34.144s-128 9.856-128-34.144a139.264 139.264 0 0 1 71.872-111.584z" /></svg>