<?xml version="1.0" standalone="no"?><!DOCTYPE svg PUBLIC "-//W3C//DTD SVG 1.1//EN" "http://www.w3.org/Graphics/SVG/1.1/DTD/svg11.dtd"><svg class="icon" width="200px" height="200.00px" viewBox="0 0 1024 1024" version="1.1" xmlns="http://www.w3.org/2000/svg"><path fill="#000000" d="M632.470588 368.399059V108.544c132.517647 19.696941 234.917647 125.711059 259.011765 259.855059h-259.011765zM584.282353 0c-30.117647 0-60.235294 26.925176-60.235294 60.175059v308.224c0 58.127059 48.188235 105.291294 108.423529 105.291294h307.2c30.117647 0 60.235294-26.925176 60.235294-60.175059C999.905882 185.163294 813.176471 0 584.282353 0zM475.858824 894.674824h-30.117648c-186.729412 0-343.341176-153.118118-343.341176-342.076236v-33.129412c0-145.769412 102.4-267.986824 234.917647-300.453647v283.888942c0 85.594353 72.282353 154.985412 156.611765 154.985411h283.105882c-30.117647 135.830588-150.588235 236.784941-301.17647 236.784942z m-30.117648 105.291294h30.117648c228.894118 0 415.623529-185.464471 415.623529-414.238118 0-18.251294-12.047059-33.129412-30.117647-33.129412H493.929412c-24.094118 0-48.188235-22.226824-48.188236-49.694117V138.420706c0-18.311529-18.070588-33.129412-36.141176-33.129412C180.705882 105.291294 0 290.695529 0 519.469176v33.129412c0 247.085176 198.776471 447.367529 445.741176 447.36753z" /></svg>