<?xml version="1.0" standalone="no"?><!DOCTYPE svg PUBLIC "-//W3C//DTD SVG 1.1//EN" "http://www.w3.org/Graphics/SVG/1.1/DTD/svg11.dtd"><svg class="icon" width="200px" height="200.00px" viewBox="0 0 1024 1024" version="1.1" xmlns="http://www.w3.org/2000/svg"><path fill="#000000" d="M499.952941 500.013176V101.797647c210.823529 18.913882 379.482353 187.090824 397.552941 398.215529H499.952941zM457.788235 0c-30.117647 0-60.235294 26.985412-60.235294 60.235294v42.526118C174.682353 127.638588 0 318.343529 0 550.008471c0 248.470588 198.776471 449.957647 451.764706 449.957647 228.894118 0 421.647059-174.983529 445.741176-399.962353h42.164706c30.117647 0 60.235294-26.985412 60.235294-60.235294 0-298.104471-240.941176-539.768471-542.117647-539.768471z m337.317647 600.003765c-24.094118 169.562353-168.658824 299.971765-343.341176 299.971764-198.776471 0-355.388235-156.672-355.388235-349.967058 0-176.308706 132.517647-322.198588 301.17647-346.473412v296.478117c0 55.175529 48.188235 99.990588 102.4 99.990589h295.152941z" /></svg>