<?xml version="1.0" standalone="no"?><!DOCTYPE svg PUBLIC "-//W3C//DTD SVG 1.1//EN" "http://www.w3.org/Graphics/SVG/1.1/DTD/svg11.dtd"><svg class="icon" width="200px" height="200.00px" viewBox="0 0 1024 1024" version="1.1" xmlns="http://www.w3.org/2000/svg"><path fill="#000000" d="M865.485 113.828c168.1 151.368 181.657 410.358 30.31 578.478-137.666 152.883-364.339 177.95-530.719 67.38a50.627 50.627 0 0 1-9.175 14.458l-205.557 228.311a51.2 51.2 0 0 1-72.295 3.789L47.596 978.82a51.2 51.2 0 0 1-3.79-72.294l205.558-228.311a51.587 51.587 0 0 1 15.995-11.96c-117.084-153.519-112.271-373.372 21.648-522.118 151.367-168.1 410.357-181.678 578.478-30.31z m-517.591 85.135C226.796 333.455 237.65 540.631 372.142 661.73s341.668 110.244 462.766-24.248 110.244-341.688-24.248-462.766C676.168 53.617 468.992 64.47 347.894 198.963z m245.903-8.704l5.407 2.806 27.033 14.623-29.245 54.026-27.034-14.602c-27.197-14.725-56.197-14.725-89.968 0.86a101.315 101.315 0 0 0-36.25 27.464 96.666 96.666 0 0 0-17.51 31.784l-1.024 3.441-0.45 2.028-4.834 30.31-60.662-9.626 4.813-30.35c2.867-17.982 12.206-42.456 32.358-66.766a162.652 162.652 0 0 1 57.795-44.073c48.742-22.466 96.113-23.367 139.571-1.925z"  /></svg>