<?xml version="1.0" standalone="no"?><!DOCTYPE svg PUBLIC "-//W3C//DTD SVG 1.1//EN" "http://www.w3.org/Graphics/SVG/1.1/DTD/svg11.dtd"><svg class="icon" width="200px" height="200.00px" viewBox="0 0 1024 1024" version="1.1" xmlns="http://www.w3.org/2000/svg"><path fill="#000000" d="M849.92 0c94.208 0 169.984 76.049067 169.984 169.984v679.936c0 93.866667-75.776 169.984-169.984 169.984h-566.613333a170.1888 170.1888 0 0 1-169.984-169.984v-56.661333H56.661333a56.661333 56.661333 0 1 1 0-113.322667h56.661334V566.613333H56.661333a56.661333 56.661333 0 1 1 0-113.322666h56.661334V339.968H56.661333a56.661333 56.661333 0 1 1 0-113.322667h56.661334v-56.661333C113.322667 76.049067 189.781333 0 283.306667 0z m0 113.322667h-566.613333c-31.402667 0-56.661333 25.326933-56.661334 56.661333v56.661333h56.661334a56.661333 56.661333 0 1 1 0 113.322667h-56.661334v113.322667h56.661334a56.661333 56.661333 0 1 1 0 113.322666h-56.661334v113.322667h56.661334a56.661333 56.661333 0 1 1 0 113.322667h-56.661334v56.661333c0 31.266133 25.258667 56.661333 56.661334 56.661333h566.613333a56.661333 56.661333 0 0 0 56.661333-56.661333V169.984c0-31.3344-25.258667-56.661333-56.661333-56.661333zM509.952 453.290667a56.661333 56.661333 0 1 1 0-113.322667h226.645333a56.661333 56.661333 0 1 1 0 113.322667H509.952zM453.290667 623.274667c0 31.266133 25.258667 56.661333 56.661333 56.661333h113.322667a56.661333 56.661333 0 1 0 0-113.322667H509.952c-31.402667 0-56.661333 25.326933-56.661333 56.661334z" /></svg>