<?xml version="1.0" standalone="no"?><!DOCTYPE svg PUBLIC "-//W3C//DTD SVG 1.1//EN" "http://www.w3.org/Graphics/SVG/1.1/DTD/svg11.dtd"><svg class="icon" width="200px" height="200.00px" viewBox="0 0 1024 1024" version="1.1" xmlns="http://www.w3.org/2000/svg"><path fill="#000000" d="M928 800l32 128v64H64v-64l32-128h64v-288H64v-192l416-256h64l416 256v192h-96v288h64zM512 128L192 320h640z m384 320v-64H128v64h768zM224 512v288h32v-288H224z m480 288v-288h-32v288h32z m-96-288h-192v288h192v-288z m-256 0h-32v288h32v-288z m416 0v288h32v-288h-32zM160 864l-32 64h768l-32-64H160z" /></svg>